<svg width="155" height="48" viewBox="0 0 155 48" fill="none" xmlns="http://www.w3.org/2000/svg">
<path d="M37.683 29V19.0059H39.8021V27.25H43.8559V29H37.683ZM48.8 22.6973C48.3579 22.6973 48.0116 22.8385 47.7609 23.1211C47.5103 23.3991 47.3667 23.7956 47.3303 24.3105H50.2561C50.2469 23.7956 50.1125 23.3991 49.8527 23.1211C49.593 22.8385 49.2421 22.6973 48.8 22.6973ZM49.0939 29.1367C47.8635 29.1367 46.9019 28.7972 46.2092 28.1182C45.5165 27.4391 45.1701 26.4775 45.1701 25.2334C45.1701 23.9528 45.4891 22.9639 46.1271 22.2666C46.7697 21.5648 47.6561 21.2139 48.7863 21.2139C49.8664 21.2139 50.7072 21.5215 51.3088 22.1367C51.9103 22.752 52.2111 23.6019 52.2111 24.6865V25.6982H47.2824C47.3052 26.2907 47.4807 26.7533 47.8088 27.0859C48.1369 27.4186 48.5972 27.585 49.1896 27.585C49.6499 27.585 50.0852 27.5371 50.4953 27.4414C50.9055 27.3457 51.3339 27.193 51.7805 26.9834V28.5967C51.4159 28.779 51.0262 28.9134 50.6115 29C50.1968 29.0911 49.6909 29.1367 49.0939 29.1367ZM58.96 29L58.5566 27.9609H58.502C58.151 28.403 57.7887 28.7106 57.415 28.8838C57.0459 29.0524 56.5628 29.1367 55.9658 29.1367C55.2321 29.1367 54.6533 28.9271 54.2295 28.5078C53.8102 28.0885 53.6006 27.4915 53.6006 26.7168C53.6006 25.9056 53.8831 25.3086 54.4482 24.9258C55.0179 24.5384 55.8747 24.3242 57.0186 24.2832L58.3447 24.2422V23.9072C58.3447 23.1325 57.9482 22.7451 57.1553 22.7451C56.5446 22.7451 55.8268 22.9297 55.002 23.2988L54.3115 21.8906C55.1911 21.4303 56.1663 21.2002 57.2373 21.2002C58.2627 21.2002 59.0488 21.4235 59.5957 21.8701C60.1426 22.3167 60.416 22.9958 60.416 23.9072V29H58.96ZM58.3447 25.459L57.5381 25.4863C56.932 25.5046 56.4808 25.6139 56.1846 25.8145C55.8883 26.015 55.7402 26.3203 55.7402 26.7305C55.7402 27.3184 56.0775 27.6123 56.752 27.6123C57.235 27.6123 57.6201 27.4733 57.9072 27.1953C58.1989 26.9173 58.3447 26.5482 58.3447 26.0879V25.459ZM67.035 21.2139C67.3175 21.2139 67.5522 21.2344 67.7391 21.2754L67.5818 23.2305C67.4132 23.1849 67.2081 23.1621 66.9666 23.1621C66.3012 23.1621 65.7817 23.333 65.408 23.6748C65.0389 24.0166 64.8543 24.4951 64.8543 25.1104V29H62.7693V21.3574H64.3484L64.6561 22.6426H64.7586C64.9956 22.2142 65.3146 21.8701 65.7156 21.6104C66.1212 21.346 66.561 21.2139 67.035 21.2139ZM76.3814 29H74.2965V24.5361C74.2965 23.9847 74.1985 23.5723 74.0025 23.2988C73.8066 23.0208 73.4944 22.8818 73.066 22.8818C72.4827 22.8818 72.0611 23.0778 71.8014 23.4697C71.5416 23.8571 71.4117 24.502 71.4117 25.4043V29H69.3268V21.3574H70.9195L71.1998 22.335H71.316C71.5484 21.9658 71.8674 21.6878 72.273 21.501C72.6832 21.3096 73.148 21.2139 73.6676 21.2139C74.5562 21.2139 75.2307 21.4554 75.691 21.9385C76.1513 22.417 76.3814 23.1097 76.3814 24.0166V29ZM86.9602 29L84.5539 21.1592H84.4924C84.579 22.7542 84.6223 23.8184 84.6223 24.3516V29H82.7287V19.0059H85.6135L87.9787 26.6484H88.0197L90.5285 19.0059H93.4133V29H91.4377V24.2695C91.4377 24.0462 91.44 23.7887 91.4445 23.4971C91.4536 23.2054 91.4855 22.4307 91.5402 21.1729H91.4787L88.9016 29H86.9602ZM97.6328 25.165C97.6328 25.9215 97.7559 26.4935 98.002 26.8809C98.2526 27.2682 98.6582 27.4619 99.2188 27.4619C99.7747 27.4619 100.174 27.2705 100.415 26.8877C100.661 26.5003 100.784 25.9261 100.784 25.165C100.784 24.4085 100.661 23.8411 100.415 23.4629C100.169 23.0846 99.7656 22.8955 99.2051 22.8955C98.6491 22.8955 98.248 23.0846 98.002 23.4629C97.7559 23.8366 97.6328 24.404 97.6328 25.165ZM102.917 25.165C102.917 26.4092 102.589 27.3822 101.933 28.084C101.276 28.7858 100.363 29.1367 99.1914 29.1367C98.4577 29.1367 97.8105 28.9772 97.25 28.6582C96.6895 28.3346 96.2588 27.8721 95.958 27.2705C95.6572 26.6689 95.5068 25.9671 95.5068 25.165C95.5068 23.9163 95.8327 22.9456 96.4844 22.2529C97.1361 21.5602 98.0521 21.2139 99.2324 21.2139C99.9661 21.2139 100.613 21.3734 101.174 21.6924C101.734 22.0114 102.165 22.4694 102.466 23.0664C102.767 23.6634 102.917 24.363 102.917 25.165ZM109.105 21.2139C109.388 21.2139 109.623 21.2344 109.809 21.2754L109.652 23.2305C109.484 23.1849 109.278 23.1621 109.037 23.1621C108.372 23.1621 107.852 23.333 107.478 23.6748C107.109 24.0166 106.925 24.4951 106.925 25.1104V29H104.84V21.3574H106.419L106.726 22.6426H106.829C107.066 22.2142 107.385 21.8701 107.786 21.6104C108.192 21.346 108.631 21.2139 109.105 21.2139ZM114.562 22.6973C114.12 22.6973 113.774 22.8385 113.523 23.1211C113.272 23.3991 113.129 23.7956 113.092 24.3105H116.018C116.009 23.7956 115.875 23.3991 115.615 23.1211C115.355 22.8385 115.004 22.6973 114.562 22.6973ZM114.856 29.1367C113.626 29.1367 112.664 28.7972 111.971 28.1182C111.279 27.4391 110.932 26.4775 110.932 25.2334C110.932 23.9528 111.251 22.9639 111.889 22.2666C112.532 21.5648 113.418 21.2139 114.548 21.2139C115.629 21.2139 116.469 21.5215 117.071 22.1367C117.672 22.752 117.973 23.6019 117.973 24.6865V25.6982H113.045C113.067 26.2907 113.243 26.7533 113.571 27.0859C113.899 27.4186 114.359 27.585 114.952 27.585C115.412 27.585 115.847 27.5371 116.257 27.4414C116.668 27.3457 117.096 27.193 117.543 26.9834V28.5967C117.178 28.779 116.788 28.9134 116.374 29C115.959 29.0911 115.453 29.1367 114.856 29.1367Z" fill="#784F33"/>
<rect x="0.5" y="0.5" width="154" height="47" rx="23.5" stroke="#784F33"/>
</svg>
